<svg id="Layer_1" data-name="Layer 1" xmlns="http://www.w3.org/2000/svg" viewBox="0 0 45 32.62"><defs><style>.cls-1{fill:#050505;}</style></defs><title>bulk-assign</title><path class="cls-1" d="M16,21.7a7,7,0,1,0-6.4-7.58q0,.3,0,.6a6.7,6.7,0,0,0,6.41,7Zm0,4.65c-5-.05-15,2.72-15,8.14v5.82H22.28a16.15,16.15,0,0,1,.15-14S19,26.38,16,26.35Zm29.27,2-11,11.21a2.45,2.45,0,0,1-3.47,0l-.05,0L25.29,34a2.55,2.55,0,0,1,0-3.58,2.45,2.45,0,0,1,3.47,0l0,0,3.26,3.31a.63.63,0,0,0,.88,0h0l8.8-9a2.46,2.46,0,0,1,3.48,0l0,0a2.56,2.56,0,0,1,0,3.59Z" transform="translate(-1 -7.69)"/></svg>