<svg id="Layer_1" data-name="Layer 1" xmlns="http://www.w3.org/2000/svg" viewBox="0 0 31.76 41.22"><title>close-status</title><path d="M35.75,7.52H29.8a6.14,6.14,0,0,0-11.61,0h-6a4.12,4.12,0,0,0-4.12,4.12V40.49a4.13,4.13,0,0,0,4.12,4.12H35.76a4.13,4.13,0,0,0,4.12-4.12V11.64a4.12,4.12,0,0,0-4.12-4.12ZM24,7.52a2.06,2.06,0,1,1-2,2.06h0a2.05,2.05,0,0,1,2-2.06Zm-3.11,20.6-4.75-4.75,3.24-3.32,4.48,4.74,4.73-5,3.25,3.28L26.92,28l5,4.93-3.32,3.24L24,31.23l-4.8,5.07-3.17-3.43Z" transform="translate(-8.12 -3.39)"/></svg>