<svg id="Layer_1" data-name="Layer 1" xmlns="http://www.w3.org/2000/svg" viewBox="0 0 38.91 40"><title>settings</title><path d="M38.86,26A15.59,15.59,0,0,0,39,24a15.59,15.59,0,0,0-.14-2l4.22-3.3a1,1,0,0,0,.24-1.28l-4-6.92a1,1,0,0,0-1.22-.44l-5,2a14.61,14.61,0,0,0-3.38-2L29,4.84A1,1,0,0,0,28,4H20a1,1,0,0,0-1,.84l-.76,5.3a15.37,15.37,0,0,0-3.38,2l-5-2a1,1,0,0,0-1.22.44l-4,6.92a1,1,0,0,0,.24,1.28L9.14,22A15.86,15.86,0,0,0,9,24a15.86,15.86,0,0,0,.14,2l-4.22,3.3a1,1,0,0,0-.24,1.28l4,6.92a1,1,0,0,0,1.22.44l5-2a14.61,14.61,0,0,0,3.38,2l.76,5.3A1,1,0,0,0,20,44h8a1,1,0,0,0,1-.84l.76-5.3a15.37,15.37,0,0,0,3.38-2l5,2a1,1,0,0,0,1.22-.44l4-6.92a1,1,0,0,0-.24-1.28ZM24,31a7,7,0,1,1,7-7A7,7,0,0,1,24,31Z" transform="translate(-4.54 -4)"/></svg>