<svg id="Layer_1" data-name="Layer 1" xmlns="http://www.w3.org/2000/svg" xmlns:xlink="http://www.w3.org/1999/xlink" viewBox="0 0 46 42"><defs><style>.cls-1{clip-path:url(#clip-path);}</style><clipPath id="clip-path" transform="translate(0 -2)"/></defs><title>upload</title><g class="cls-1"><path d="M6,8V2h4V8h6v4H10v6H6V12H0V8Zm6,12V14h6V8H32l3.66,4H42a4,4,0,0,1,4,4V40a4,4,0,0,1-4,4H10a4,4,0,0,1-4-4V20ZM26,38A10,10,0,1,0,16,28,10,10,0,0,0,26,38ZM19.6,28A6.4,6.4,0,1,0,26,21.6,6.39,6.39,0,0,0,19.6,28Z" transform="translate(0 -2)"/></g></svg>